HIERARCHY
ROOT Hips
{
 OFFSET 0.000000 0.000000 0.000000
 CHANNELS 6 Xposition Yposition Zposition Yrotation Xrotation Zrotation
 JOINT Chest
 {
  OFFSET 0.000000 9.585900 0.002600
  CHANNELS 3 Yrotation Xrotation Zrotation
  JOINT Chest2
  {
   OFFSET 0.000000 9.601200 -0.005300
   CHANNELS 3 Yrotation Xrotation Zrotation
   JOINT Chest3
   {
    OFFSET 0.000000 9.561800 0.000000
    CHANNELS 3 Yrotation Xrotation Zrotation
    JOINT Chest4
    {
     OFFSET 0.000000 9.552100 0.000000
     CHANNELS 3 Yrotation Xrotation Zrotation
     JOINT Neck
     {
      OFFSET 0.000000 14.453000 0.000000
      CHANNELS 3 Yrotation Xrotation Zrotation
      JOINT Head
      {
       OFFSET 0.000000 8.936500 -0.011300
       CHANNELS 3 Yrotation Xrotation Zrotation
       End Site
       {
        OFFSET 0.000000 17.073600 -0.006000
       }
      }
     }
     JOINT RightCollar
     {
      OFFSET -2.921100 9.558500 0.000000
      CHANNELS 3 Yrotation Xrotation Zrotation
      JOINT RightShoulder
      {
       OFFSET -13.519700 0.000000 0.000000
       CHANNELS 3 Yrotation Xrotation Zrotation
       JOINT RightElbow
       {
        OFFSET 0.000000 -29.696600 0.000000
        CHANNELS 3 Yrotation Xrotation Zrotation
        JOINT RightWrist
        {
         OFFSET 0.000000 -24.004700 0.000000
         CHANNELS 3 Yrotation Xrotation Zrotation
         End Site
         {
          OFFSET 0.000000 -17.728500 0.000000
         }
        }
       }
      }
     }
     JOINT LeftCollar
     {
      OFFSET 2.921100 9.558500 0.000000
      CHANNELS 3 Yrotation Xrotation Zrotation
      JOINT LeftShoulder
      {
       OFFSET 13.519700 0.000000 0.000000
       CHANNELS 3 Yrotation Xrotation Zrotation
       JOINT LeftElbow
       {
        OFFSET 0.000000 -29.696600 0.000000
        CHANNELS 3 Yrotation Xrotation Zrotation
        JOINT LeftWrist
        {
         OFFSET 0.000000 -24.004700 0.000000
         CHANNELS 3 Yrotation Xrotation Zrotation
         End Site
         {
          OFFSET 0.000000 -17.728500 0.000000
         }
        }
       }
      }
     }
    }
   }
  }
 }
 JOINT RightHip
 {
  OFFSET -7.771700 -0.012900 -0.001300
  CHANNELS 3 Yrotation Xrotation Zrotation
  JOINT RightKnee
  {
   OFFSET 0.000000 -40.869800 0.001200
   CHANNELS 3 Yrotation Xrotation Zrotation
   JOINT RightAnkle
   {
    OFFSET 0.000000 -39.717900 0.002100
    CHANNELS 3 Yrotation Xrotation Zrotation
    JOINT RightToe
    {
     OFFSET 0.000000 -4.965400 11.033500
     CHANNELS 3 Yrotation Xrotation Zrotation
     End Site
     {
      OFFSET 0.000000 -1.423100 5.872300
     }
    }
   }
  }
 }
 JOINT LeftHip
 {
  OFFSET 7.771700 -0.012900 -0.001300
  CHANNELS 3 Yrotation Xrotation Zrotation
  JOINT LeftKnee
  {
   OFFSET 0.000000 -40.869800 0.001200
   CHANNELS 3 Yrotation Xrotation Zrotation
   JOINT LeftAnkle
   {
    OFFSET 0.000000 -39.717900 0.002100
    CHANNELS 3 Yrotation Xrotation Zrotation
    JOINT LeftToe
    {
     OFFSET 0.000000 -4.965400 11.033500
     CHANNELS 3 Yrotation Xrotation Zrotation
     End Site
     {
      OFFSET 0.000000 -1.423100 5.872300
     }
    }
   }
  }
 }
}
MOTION
Frames: 15
Frame Time: 0.008333
0.000000 85.388000 0.000000 0.000000 -5.767877 0.000000 0.000000 11.653817 0.000000 0.000000 -5.885947 0.000000 0.000000 -0.000000 0.000000 0.000000 -0.000000 0.000000 0.000000 12.528835 0.000000 0.000000 0.711642 0.000000 0.000000 -0.000000 0.000000 0.000000 0.000000 -90.000000 0.000000 -2.309062 0.000000 0.000000 2.309062 0.000000 0.000000 -0.000000 0.000000 0.000000 -0.000000 90.000000 0.000000 -2.309062 0.000000 0.000000 2.309062 0.000000 0.000000 8.520406 0.000000 0.000000 1.905762 0.000000 -0.000000 -4.658285 0.000000 0.000000 -0.000000 0.000000 0.000000 8.520406 0.000000 0.000000 1.905762 0.000000 -0.000000 -4.658285 0.000000 0.000000 -0.000000 0.000000
-49.270245 57.774861 11.436094 179.425079 -47.571791 -2.760891 2.871402 22.878255 2.847128 1.449733 13.105706 1.512395 1.870022 16.356915 1.935553 1.466369 13.119454 1.528120 2.019935 12.356454 6.367813 1.209816 -12.762046 11.287517 2.064464 2.176962 -0.002212 -4.831491 -16.993150 -8.184001 -32.850455 -9.460834 91.782024 -10.688989 -7.409387 -25.377787 -11.223834 -3.034119 -2.171339 -5.680380 -18.863971 14.501107 73.809231 -37.617935 -140.014393 -9.437679 5.587003 -32.532695 4.233525 -23.891907 -4.742083 -33.407345 75.096303 -38.138629 5.798287 -16.548786 11.800983 -0.000210 -0.055558 -0.009526 -6.964973 -21.688848 4.791974 86.933905 82.455060 86.076939 0.507568 -21.684057 -17.686964 0.023561 0.051384 0.024384
-49.269184 57.775297 11.438065 179.415808 -47.559581 -2.748813 2.876960 22.881320 2.856421 1.448340 13.099041 1.506459 1.891070 16.393188 1.976785 1.446975 13.094475 1.503143 2.032419 12.546579 6.387292 1.232662 -12.422118 11.297721 2.029292 2.294980 0.047016 -4.813065 -17.093516 -8.206531 -32.845908 -9.519102 91.796337 -10.701794 -7.414612 -25.338703 -11.214750 -2.912373 -2.135332 -5.684506 -18.954717 14.492374 73.835868 -37.614063 -140.056870 -9.425106 5.612116 -32.536352 4.233846 -23.910309 -4.748525 -33.408738 75.100584 -38.141360 5.801302 -16.545643 11.797587 0.000526 -0.060336 -0.011085 -6.958032 -21.699367 4.798649 86.878259 82.458203 86.012806 0.497200 -21.682404 -17.681366 0.027640 0.053124 0.023748
-49.267726 57.775889 11.440208 179.409504 -47.545041 -2.738199 2.875034 22.911209 2.880381 1.451435 13.098038 1.510129 1.886458 16.378659 1.967466 1.448099 13.096966 1.507772 2.038316 12.725474 6.395317 1.254633 -12.090616 11.301095 2.000726 2.371804 0.068494 -4.811154 -17.153501 -8.215812 -32.862107 -9.557410 91.875484 -10.690903 -7.413719 -25.353702 -11.212585 -2.840190 -2.120101 -5.689912 -18.948561 14.517402 73.872107 -37.617473 -140.100851 -9.434676 5.596097 -32.565082 4.235020 -23.927702 -4.754263 -33.409236 75.101568 -38.144565 5.814329 -16.548305 11.800785 0.005518 -0.064578 -0.014588 -6.954652 -21.712921 4.803826 86.791963 82.454599 85.915838 0.488239 -21.673451 -17.674109 0.025719 0.054922 0.021301
-49.266164 57.776596 11.442417 179.399759 -47.528255 -2.723010 2.876261 22.918299 2.891761 1.452193 13.106702 1.520719 1.879181 16.361652 1.949114 1.460427 13.121399 1.538894 2.037304 12.891687 6.391409 1.275552 -11.770283 11.296935 1.976936 2.421633 0.071007 -4.827559 -17.186800 -8.218528 -32.865064 -9.592524 91.949348 -10.682049 -7.420531 -25.351880 -11.215028 -2.799103 -2.125319 -5.710940 -18.941227 14.541210 73.891155 -37.630134 -140.107794 -9.455062 5.561785 -32.594955 4.237269 -23.946360 -4.760833 -33.406204 75.102055 -38.145669 5.813809 -16.547809 11.807508 0.008392 -0.071634 -0.013166 -6.946122 -21.727838 4.802262 86.731598 82.452266 85.852151 0.487479 -21.670270 -17.677066 0.021357 0.058385 0.024591
-49.264311 57.777548 11.444377 179.392914 -47.511026 -2.709827 2.874298 22.926778 2.904781 1.451239 13.110089 1.526120 1.874740 16.349251 1.934917 1.459911 13.123076 1.542467 2.050986 13.075351 6.413433 1.293174 -11.462148 11.286716 1.969834 2.496403 0.101800 -4.833611 -17.250577 -8.243715 -32.873519 -9.590182 92.014037 -10.680139 -7.430086 -25.341805 -11.211578 -2.728302 -2.110134 -5.732153 -18.948064 14.555274 73.956030 -37.632743 -140.167763 -9.464922 5.544555 -32.607694 4.241117 -23.964564 -4.770447 -33.415529 75.101020 -38.149368 5.813502 -16.547565 11.804960 0.021803 -0.072548 -0.013311 -6.941150 -21.742888 4.803886 86.671814 82.453406 85.787420 0.478029 -21.666810 -17.676207 0.021033 0.058338 0.024381
-49.261500 57.778252 11.446484 179.380137 -47.489577 -2.697211 2.878092 22.932677 2.923465 1.449153 13.114444 1.532611 1.880578 16.386187 1.982621 1.437137 13.073859 1.482794 2.061078 13.257215 6.436493 1.306470 -11.165923 11.270803 1.965355 2.576345 0.133933 -4.842951 -17.317446 -8.270379 -32.880576 -9.581009 92.083148 -10.678483 -7.442521 -25.337062 -11.213660 -2.651415 -2.092292 -5.741906 -18.959109 14.564590 74.021521 -37.637147 -140.231530 -9.455244 5.569807 -32.600023 4.247391 -23.987538 -4.776863 -33.407280 75.102460 -38.134659 5.824589 -16.551466 11.794758 0.017285 -0.069348 -0.013411 -6.937737 -21.762914 4.813499 86.629764 82.456299 85.737036 0.478242 -21.661795 -17.679036 0.023673 0.055822 0.021410
-49.259287 57.778686 11.448466 179.370876 -47.464665 -2.683793 2.875619 22.938768 2.937715 1.446573 13.120081 1.540320 1.877668 16.393226 1.992279 1.443671 13.108571 1.526161 2.041394 13.382036 6.392805 1.315058 -10.882736 11.249399 1.950596 2.601184 0.099527 -4.866494 -17.349340 -8.280018 -32.879680 -9.604699 92.161347 -10.676223 -7.459308 -25.335265 -11.223174 -2.639033 -2.127874 -5.747703 -18.977499 14.571826 74.041397 -37.651009 -140.236353 -9.448467 5.619039 -32.597228 4.249205 -24.016364 -4.784323 -33.425087 75.097849 -38.148199 5.825426 -16.543937 11.785892 0.019628 -0.073382 -0.008590 -6.938870 -21.784754 4.818626 86.586049 82.457323 85.683463 0.476399 -21.664839 -17.683433 0.023298 0.060661 0.023779
-49.257212 57.779582 11.449551 179.366227 -47.442513 -2.673868 2.871149 22.933422 2.940575 1.440409 13.144935 1.562141 1.873954 16.401555 2.002195 1.443300 13.126703 1.548236 2.029941 13.516835 6.367564 1.319868 -10.612625 11.223828 1.950534 2.636221 0.080975 -4.895243 -17.375211 -8.296455 -32.877550 -9.623775 92.251521 -10.671950 -7.477541 -25.334848 -11.221121 -2.609093 -2.153430 -5.753387 -19.044150 14.564171 73.935480 -37.681693 -140.101550 -9.486457 5.584860 -32.641513 4.247739 -24.041003 -4.790965 -33.429779 75.095552 -38.154536 5.816952 -16.530291 11.792864 0.020108 -0.082988 -0.011564 -6.937906 -21.806338 4.816491 86.555904 82.454953 85.654100 0.473775 -21.663001 -17.687037 0.024571 0.060603 0.022648
-49.255509 57.779948 11.450557 179.349784 -47.415538 -2.654518 2.872141 22.924958 2.942560 1.430581 13.173018 1.583835 1.867529 16.411387 2.011894 1.441295 13.102370 1.522622 2.027336 13.686555 6.390753 1.322451 -10.355552 11.194921 1.962685 2.706017 0.105904 -4.931023 -17.333447 -8.305304 -32.887379 -9.698915 92.375472 -10.666442 -7.494368 -25.335125 -11.217353 -2.588271 -2.161940 -5.762740 -18.989869 14.586866 73.931324 -37.691782 -140.102289 -9.509259 5.575167 -32.662219 4.254975 -24.070213 -4.801074 -33.425370 75.095520 -38.151597 5.817445 -16.525086 11.793542 0.016602 -0.085851 -0.014425 -6.930185 -21.833043 4.813111 86.527738 82.453827 85.628045 0.472518 -21.659118 -17.692186 0.026627 0.057731 0.021570
-49.253806 57.780505 11.450765 179.337858 -47.388975 -2.640144 2.864193 22.936461 2.955808 1.429871 13.160512 1.574928 1.853598 16.449569 2.043056 1.443113 13.072046 1.494430 2.018538 13.855411 6.417138 1.323121 -10.113141 11.165392 1.981238 2.770573 0.130368 -4.958543 -17.329091 -8.330542 -32.898247 -9.730683 92.482828 -10.662733 -7.509646 -25.336977 -11.211667 -2.568501 -2.172102 -5.769355 -18.933247 14.608307 73.939185 -37.688718 -140.127978 -9.520040 5.587785 -32.672293 4.257892 -24.100343 -4.807914 -33.422114 75.098617 -38.153245 5.825832 -16.520117 11.796151 0.001614 -0.089759 -0.014542 -6.927216 -21.858237 4.810253 86.514082 82.453687 85.614409 0.475494 -21.658392 -17.695667 0.023423 0.055416 0.018072
-49.253032 57.777960 11.453085 179.315266 -47.336525 -2.614318 2.857176 22.928325 2.964842 1.430600 13.143879 1.564126 1.831836 16.491789 2.071044 1.425351 13.134980 1.552874 2.005851 13.927964 6.346376 1.323256 -9.884855 11.137985 2.026983 2.735032 0.057859 -4.981358 -17.343797 -8.363856 -32.908331 -9.738564 92.578863 -10.659531 -7.522955 -25.342893 -11.181087 -2.522635 -2.229184 -5.771317 -19.040404 14.612205 73.913268 -37.679288 -140.118469 -9.530491 5.597418 -32.685067 4.268750 -24.158780 -4.820165 -33.419640 75.102955 -38.157575 5.835185 -16.519430 11.798542 -0.006921 -0.090523 -0.019576 -6.927614 -21.908053 4.810825 86.498801 82.451783 85.591020 0.472809 -21.663119 -17.697773 0.022272 0.057385 0.014914
-49.252520 57.778606 11.451708 179.303290 -47.308402 -2.596338 2.824353 22.987679 2.983908 1.433949 13.117045 1.551103 1.828617 16.471004 2.051853 1.395538 13.198397 1.601351 2.000344 14.026774 6.316888 1.322763 -9.667931 11.115711 2.082384 2.727168 0.022899 -5.002272 -17.361064 -8.398790 -32.919270 -9.741319 92.674052 -10.653610 -7.532099 -25.352633 -11.147463 -2.495972 -2.273488 -5.770518 -19.134042 14.616885 73.830930 -37.665232 -140.049430 -9.537738 5.603975 -32.701155 4.268887 -24.193077 -4.831706 -33.419755 75.111927 -38.167404 5.844350 -16.515453 11.798434 0.016212 -0.097903 -0.015870 -6.926149 -21.933529 4.803965 86.465003 82.447652 85.557019 0.471231 -21.659179 -17.699380 0.024313 0.054594 0.010254
-49.251077 57.780848 11.448148 179.297368 -47.291316 -2.590173 2.795823 23.034243 2.996115 1.404091 13.159753 1.570763 1.848821 16.405909 2.007572 1.367926 13.241973 1.628412 1.992464 14.138751 6.310829 1.318721 -9.460044 11.102179 2.139001 2.734788 0.007464 -5.022794 -17.381283 -8.434338 -32.925762 -9.769717 92.736529 -10.649842 -7.535357 -25.358199 -11.118828 -2.476898 -2.307802 -5.769042 -19.196631 14.625724 73.743639 -37.648962 -139.979597 -9.548433 5.606666 -32.721258 4.270849 -24.210744 -4.835422 -33.410698 75.114056 -38.159543 5.851401 -16.507117 11.798199 0.005903 -0.103084 -0.012274 -6.927545 -21.946563 4.803119 86.426098 82.444127 85.520014 0.472549 -21.653512 -17.703591 0.030052 0.049523 0.008365
-49.250502 57.781069 11.445540 179.288962 -47.256783 -2.579081 2.771747 23.049726 2.998462 1.392041 13.170800 1.573504 1.833850 16.418705 2.010388 1.356464 13.248737 1.629785 1.981936 14.246104 6.308670 1.307928 -9.260449 11.097331 2.197271 2.740447 -0.007546 -5.036978 -17.430072 -8.473528 -32.931409 -9.767860 92.782206 -10.646179 -7.536945 -25.364335 -11.094505 -2.459610 -2.342366 -5.777248 -19.202240 14.646660 73.714886 -37.639633 -139.969307 -9.566909 5.605080 -32.745721 4.276474 -24.247353 -4.844201 -33.397521 75.126606 -38.147171 5.847905 -16.508796 11.796043 0.002264 -0.104297 -0.010382 -6.924195 -21.980017 4.801461 86.413375 82.440896 85.510299 0.469587 -21.650046 -17.704008 0.033221 0.045097 0.006639
